<svg width="200" height="200" viewBox="0 0 200 200" fill="none" xmlns="http://www.w3.org/2000/svg">
<path d="M110.343 90.7744L184.134 131.941L182.314 136.552L116.731 120.302V120.301L93.6494 114.593L93.6426 114.592L84.6426 112.342L84.6016 112.331L84.5605 112.319L73.2266 109.069L70.1211 108.179L71.7627 105.396L75.1797 99.6045L75.2559 99.4756L75.3467 99.3564L79.1387 94.3975L79.1582 94.3721L79.6172 93.7881L80.6416 92.4844L82.2422 92.9219L96.8564 96.918L107.909 90.7734L109.126 90.0967L110.343 90.7744ZM109.598 103.585C109.387 103.555 108.962 103.584 108.393 103.884C107.789 104.201 107.227 104.722 106.87 105.337L106.855 105.363L106.84 105.389C106.596 105.786 106.543 106.064 106.535 106.207C106.752 106.235 107.185 106.202 107.762 105.902C108.379 105.581 108.944 105.059 109.295 104.454L109.305 104.438L109.313 104.422C109.549 104.029 109.596 103.729 109.598 103.585Z" fill="#949494" stroke="black" stroke-width="5"/>
<path d="M115.39 119.969L129.585 163.183L99.6992 116.09L115.39 119.969Z" fill="#333333" stroke="black" stroke-width="5"/>
<path d="M112.083 103.25C112.166 104 111.958 104.875 111.458 105.708C110.25 107.792 107.75 109.083 105.875 108.625C104 108.167 103.458 106.125 104.708 104.083C105.916 102 108.375 100.708 110.25 101.167C110.916 101.333 111.416 101.667 111.708 102.167C111.916 102.458 112.041 102.833 112.083 103.25Z" fill="#3D3D3D"/>
<path d="M103.311 72.3945L109.603 92.8115L109.722 93.1973L109.368 93.3945L97.4521 100.062L97.2207 100.19L96.9844 100.072L96.9004 100.031L96.1582 99.6592L96.834 99.1768L97.123 98.9697L92.1885 83.0654L92.0996 82.7803L92.3086 82.5674L102.476 72.1924L103.063 71.5928L103.311 72.3945Z" fill="#949494" stroke="black"/>
<path d="M95.5703 9.03711C98.6284 8.82276 101.527 9.33801 103.998 10.7842C106.49 12.2426 108.353 14.5352 109.5 17.5195C113.407 27.686 112.672 45.8497 100.85 62.4424L105.096 71.4785L105.835 73.0498L104.619 74.291L94.4521 84.666L94.4346 84.6836L93.6016 85.5176L90.8779 88.2412L89.499 84.6445L69.793 33.2314C68.813 30.6891 69.239 27.7494 70.2676 25.2197C71.3186 22.6351 73.1368 20.1112 75.4902 18.248L75.498 18.2412C82.489 12.7515 89.5231 9.46106 95.5703 9.03711ZM93.0811 28.1748C90.595 28.0899 87.3175 29.1791 84.4756 31.5342L92.4072 49.2119C95.1271 46.1215 96.1685 44.1528 96.6279 42.3311C96.9276 41.1428 97.0135 39.8892 97.0186 38.208C97.0233 36.6284 96.9491 34.418 97.001 31.9473C97.0301 30.4777 96.5731 29.6581 96.042 29.1689C95.4606 28.6337 94.4895 28.223 93.0811 28.1748Z" fill="#FBB03B" stroke="black" stroke-width="5"/>
<path d="M22.042 80.1309C24.334 78.7713 27.1104 77.943 29.71 78.5693L29.7217 78.5723L86.79 92.6055L84.4912 95.6357L83.5742 96.8438L82.5771 98.1582L81.9473 98L79.4824 102.151L79.4092 102.273L79.3242 102.386L74.9902 108.095L73.9365 109.483L72.2686 108.974L62.6436 106.031C47.9499 120.066 30.3512 123.004 19.8223 120.428L19.8145 120.426C16.7183 119.658 14.2201 118.08 12.4629 115.775C10.7225 113.492 9.83527 110.664 9.63965 107.58C9.25256 101.475 11.5397 93.9933 16 86.252L16.0039 86.2441L16.0078 86.2373C17.5157 83.6593 19.6965 81.5221 22.042 80.1309ZM30.1094 93.7041C28.1766 96.8312 27.5458 100.123 27.9492 102.522C28.1775 103.881 28.7073 104.82 29.3545 105.388C29.966 105.924 30.8957 106.318 32.3623 106.214L35.7969 105.977C38.7936 105.761 40.601 105.548 42.3408 104.763C44.1115 103.963 45.9322 102.482 48.6572 99.2158L30.1094 93.7041Z" fill="#CC0000" stroke="black" stroke-width="5"/>
</svg>
