<svg width="200" height="200" viewBox="0 0 200 200" fill="none" xmlns="http://www.w3.org/2000/svg">
<path d="M88.8926 32.3154L140.185 83.6064L141.952 85.375L85.375 141.952L30.6182 87.1953L32.3281 85.4277L33.5781 84.1357L33.5928 84.1221L33.6064 84.1074L84.7734 32.8994V32.8984L85.3574 32.3154L87.125 30.5479L88.8926 32.3154Z" fill="#FBB03B" stroke="black" stroke-width="5"/>
<path d="M33.416 67.875L25.166 76.4583L130.208 175.5L141.208 174.125L33.416 67.875Z" fill="#FCEE21"/>
<path d="M140.185 83.6074L157.977 101.398L159.712 103.135L158.008 104.902L156.883 106.068L155.116 107.901L154.499 107.285L107.285 154.499L107.901 155.116L106.068 156.883L104.902 158.008L103.135 159.712L101.398 157.977L83.6074 140.185L81.8398 138.417L83.6074 136.648L136.648 83.6074L138.417 81.8398L140.185 83.6074Z" fill="#A67C52" stroke="black" stroke-width="5"/>
<path d="M156.852 102.565L171.142 116.854L171.566 117.289C173.66 119.484 175.332 122.048 176.496 124.853C177.737 127.844 178.376 131.052 178.376 134.291C178.376 137.53 177.738 140.738 176.496 143.73C175.255 146.722 173.435 149.437 171.143 151.725L171.144 151.726L151.729 171.14C149.441 173.433 146.723 175.254 143.731 176.495C140.74 177.736 137.532 178.375 134.293 178.375C131.054 178.375 127.846 177.737 124.854 176.495C121.862 175.254 119.146 173.435 116.858 171.143L100.799 155.083L155.084 100.798L156.852 102.565ZM73.8164 23.9404C75.6677 22.0891 78.6672 22.0891 80.5186 23.9404L90.6611 34.083L88.8936 35.8506L88.3105 36.4326L37.1719 87.6123L35.9229 88.9053L34.1553 90.7314L23.9414 80.5176L23.9424 80.5166C23.5023 80.0769 23.1524 79.5551 22.9141 78.9805C22.6756 78.4053 22.5527 77.7886 22.5527 77.166C22.5528 76.5434 22.6756 75.9267 22.9141 75.3516C23.1526 74.7764 23.5018 74.2534 23.9424 73.8135H23.9434L73.8164 23.9404Z" fill="#F2F2F2" stroke="black" stroke-width="5"/>
</svg>
