<svg width="200" height="200" viewBox="0 0 200 200" fill="none" xmlns="http://www.w3.org/2000/svg">
<path d="M109.52 191.408L104.905 199.297C104.712 199.622 104.398 199.857 104.032 199.952C103.667 200.047 103.278 199.994 102.951 199.805L45.1533 166.956C44.9913 166.865 44.849 166.743 44.735 166.596C44.6209 166.449 44.5373 166.281 44.4891 166.102C44.4409 165.922 44.4291 165.735 44.4543 165.551C44.4795 165.366 44.5412 165.189 44.6359 165.029L49.2501 157.142M113.274 193.466L46.7486 155.667C46.585 155.576 46.4413 155.452 46.3261 155.305C46.2108 155.157 46.1263 154.987 46.0775 154.806C46.0287 154.625 46.0166 154.436 46.0419 154.251C46.0672 154.065 46.1294 153.886 46.2248 153.725L57.7612 134.042C57.9566 133.715 58.273 133.477 58.6421 133.38C59.0112 133.284 59.4034 133.336 59.7342 133.526L126.259 171.324C126.95 171.723 127.186 172.59 126.783 173.267L115.247 192.95C114.866 193.629 113.962 193.84 113.274 193.466Z" fill="#FBB03B"/>
<path d="M88.3509 66.666L74.9668 89.7786C74.072 91.318 73.2793 92.9145 72.5938 94.5579C69.9605 100.971 69.1542 107.759 69.9367 114.336C70.8859 122.166 69.8176 130.091 66.6621 137.259L117.776 166.665C122.427 160.348 128.763 155.475 136.047 152.377C142.146 149.773 147.65 145.681 151.9 140.192C152.99 138.796 153.963 137.307 154.865 135.769L168.249 112.656" fill="#FFE8E1"/>
<path d="M118.311 89.809L130.725 67.9901L147.983 37.7078C149.185 35.5687 149.513 33.0485 148.901 30.6729C148.601 29.4993 148.07 28.3972 147.34 27.4311C146.609 26.4649 145.693 25.6541 144.645 25.046C140.296 22.4952 134.676 24.0206 132.16 28.4316L108.765 69.5155L96.8203 90.4757" fill="#FFE8E1"/>
<path d="M133.665 98.4117L143.068 82.6054L146.363 77.0801C146.975 76.0561 147.373 74.9189 147.534 73.7369C147.695 72.555 147.615 71.3526 147.299 70.2023C146.976 69.0418 146.425 67.9574 145.678 67.0127C144.93 66.068 144.002 65.282 142.947 64.7008C138.498 62.2056 132.75 63.6976 130.177 68.0103L117.455 89.3657" fill="#FFE8E1"/>
<path d="M148.232 109.523L156.311 95.0138L159.133 89.9408C160.297 87.8164 160.614 85.3307 160.022 82.9821C159.43 80.717 158.019 78.6647 155.902 77.4139C151.691 74.8901 146.251 76.398 143.816 80.7631L134.916 96.7614M151.918 139.682C152.529 139.115 153.046 138.431 153.494 137.65L154.881 135.244L168.143 112.176L171.789 105.825C173.059 103.628 173.294 101.126 172.705 98.8598C172.094 96.5931 170.636 94.5392 168.449 93.2884C164.1 90.7614 158.478 92.2725 155.962 96.6407L147.614 111.158M96.2862 89.2789L108.291 68.0473C109.567 65.7997 109.804 63.2394 109.211 60.9203C108.597 58.6029 107.132 56.5013 104.935 55.222C100.564 52.6347 94.9163 54.1823 92.3878 58.6505L88.7021 65.1489L75.3752 88.7471L73.98 91.2106C73.5384 91.9715 73.2121 92.7937 73.0117 93.6503" fill="#FFE8E1"/>
<path d="M65.6156 7.23805C72.9013 7.23805 80.0251 9.24121 86.2647 13.0523C90.5021 15.6566 94.2388 18.9988 97.298 22.9205H93.6202C91.6885 22.9205 90.1282 24.5363 90.1282 26.5395C90.1282 28.5427 91.6885 30.1585 93.6202 30.1585H106.028C107.96 30.1585 109.52 28.5427 109.52 26.5395V13.6793C109.52 11.6777 107.96 10.0603 106.028 10.0603C104.096 10.0603 102.536 11.6777 102.536 13.6793V18.1189C98.9887 13.6358 94.6783 9.81374 89.8028 6.82853C82.5222 2.37045 74.1527 0.00758025 65.6156 0C57.0711 0.00730677 48.6939 2.37004 41.4047 6.82853C34.3047 11.1714 28.3921 17.3475 24.2715 24.73C23.3175 26.4665 23.8747 28.6633 25.5508 29.676C27.227 30.6649 29.346 30.0855 30.3238 28.349C33.8397 22.0522 38.8904 16.7681 44.9666 13.0523C51.1811 9.24563 58.3279 7.23326 65.6156 7.23805ZM134.399 144.631C127.579 147.535 121.531 151.991 116.734 157.643L71.3029 131.237C73.7521 124.364 74.5759 116.85 73.6807 109.336C72.9718 103.355 73.7403 97.2919 75.9187 91.6772C76.0362 91.4407 76.1314 91.2042 76.2251 90.9423C76.6489 89.9708 77.1203 88.9756 77.6378 87.9566L78.2267 86.9137L91.5107 63.7551L95.1837 57.3806C95.5521 56.7389 96.0434 56.1761 96.6295 55.7245C97.2157 55.2729 97.8851 54.9414 98.5996 54.7488C100.06 54.3473 101.568 54.56 102.885 55.3187C103.521 55.689 104.077 56.1811 104.521 56.7667C104.966 57.3523 105.291 58.02 105.477 58.7314C105.838 60.081 105.687 61.5163 105.053 62.7615L104.888 63.0694L92.9234 83.9026C92.4559 84.7201 92.3296 85.689 92.5721 86.599C92.8146 87.5089 93.4063 88.2865 94.2186 88.7629C94.7837 89.0946 95.3726 89.2359 95.9853 89.2359C96.8805 89.2359 97.7281 88.9042 98.3869 88.2883C98.3869 88.2883 98.4107 88.2883 98.4107 88.2645L98.6234 88.0518C98.671 88.0042 98.7186 87.9327 98.7646 87.8851C98.7646 87.8851 98.7646 87.8613 98.7884 87.8613C98.8821 87.7185 98.9995 87.601 99.071 87.4343L111.034 66.6011C111.106 66.4821 111.153 66.363 111.225 66.2678L134.469 25.8078C134.838 25.1653 135.33 24.6021 135.918 24.1505C136.505 23.699 137.176 23.368 137.892 23.1765C138.607 22.985 139.354 22.9369 140.088 23.0349C140.822 23.1329 141.53 23.375 142.171 23.7475C143.448 24.49 144.38 25.7086 144.761 27.1363C145.147 28.5928 144.944 30.1425 144.196 31.4506L126.91 61.552L114.474 83.2391C114.171 83.7573 114.009 84.3454 114.003 84.9455C113.979 86.2026 114.615 87.4581 115.769 88.1216C116.172 88.3542 116.616 88.5051 117.076 88.5655C117.537 88.626 118.005 88.5949 118.454 88.4739C118.903 88.353 119.323 88.1446 119.691 87.8608C120.059 87.577 120.367 87.2233 120.598 86.8201L133.056 65.1059C133.425 64.4647 133.916 63.9023 134.502 63.451C135.088 62.9997 135.757 62.6683 136.471 62.4758C137.931 62.0742 139.439 62.2869 140.756 63.0456C141.392 63.4159 141.948 63.908 142.393 64.4936C142.837 65.0793 143.162 65.7469 143.348 66.4583C143.725 67.9503 143.537 69.4694 142.783 70.7487L139.556 76.3662L130.349 92.4359C129.882 93.2532 129.756 94.2217 129.998 95.1313C130.241 96.0409 130.832 96.8182 131.644 97.2946C132.183 97.6025 132.774 97.7692 133.363 97.7692H133.645C134.235 97.7377 134.807 97.5583 135.309 97.2476C135.811 96.937 136.227 96.505 136.518 95.9914L145.728 79.9217C146.097 79.279 146.589 78.7155 147.176 78.2636C147.763 77.8117 148.434 77.4804 149.15 77.2886C149.865 77.0968 150.612 77.0484 151.346 77.1462C152.081 77.2439 152.789 77.4859 153.429 77.8582C154.064 78.2287 154.62 78.7209 155.065 79.3065C155.509 79.8921 155.834 80.5596 156.02 81.2709C156.394 82.7286 156.191 84.2744 155.455 85.5867L152.864 90.1137L152.51 90.6819L144.15 105.26C143.683 106.077 143.558 107.045 143.8 107.954C144.043 108.863 144.634 109.64 145.445 110.117C145.893 110.379 146.387 110.521 146.906 110.569C146.953 110.569 147.023 110.569 147.069 110.591H147.234C148.46 110.591 149.637 109.952 150.298 108.814L158.869 93.8819C159.67 92.709 160.886 91.8833 162.271 91.5711C163.657 91.2589 165.109 91.4834 166.336 92.1994C166.971 92.5699 167.526 93.062 167.971 93.6476C168.415 94.2332 168.74 94.9008 168.926 95.6121C169.302 97.1041 169.115 98.6232 168.361 99.9263L164.828 106.088C164.78 106.16 164.732 106.207 164.71 106.279L151.404 129.436C150.485 130.999 149.613 132.328 148.718 133.488C144.984 138.372 140.052 142.21 134.399 144.629V144.631ZM112.614 185.138L111.953 184.757C111.858 184.688 111.765 184.615 111.647 184.567C111.552 184.521 111.436 184.45 111.341 184.402L50.365 148.967L59.6919 132.709L121.917 168.878L112.614 185.137V185.138ZM103.263 192.083L49.0919 160.629L50.9046 157.477L105.074 188.953L103.261 192.083H103.263ZM175.756 93.8359V93.8121C174.861 90.4946 172.766 87.7454 169.845 86.0613C167.83 84.872 165.518 84.2803 163.178 84.355C163.369 82.7677 163.274 81.1328 162.85 79.5201V79.4963C161.955 76.1789 159.858 73.4281 156.939 71.7456C154.965 70.6011 152.719 70.0115 150.437 70.0392C150.727 68.2551 150.639 66.4299 150.179 64.6821V64.6583C149.283 61.3409 147.188 58.5901 144.267 56.9076C142.572 55.92 140.668 55.3437 138.709 55.225L150.32 35.0077C151.988 32.0814 152.444 28.6186 151.591 25.3601C151.168 23.738 150.428 22.2157 149.414 20.8813C148.399 19.5469 147.13 18.4267 145.68 17.5856C139.628 14.0539 131.855 16.1634 128.347 22.2554L110.609 53.1393C109.541 51.5102 108.106 50.1544 106.419 49.1806C104.978 48.3373 103.384 47.7897 101.73 47.57C100.076 47.3503 98.394 47.463 96.7837 47.9013C95.1704 48.3271 93.6583 49.0705 92.3359 50.0879C91.0135 51.1054 89.9073 52.3764 89.0822 53.8266L85.5965 59.8948C85.5266 59.9901 85.4552 60.1075 85.3854 60.2266L72.1013 83.3836C71.8902 83.7629 71.6775 84.1185 71.4886 84.4979L70.7585 85.7772C70.2432 86.6641 69.8402 87.6116 69.5585 88.5978C66.8029 95.3533 65.8125 102.82 66.6855 110.191C67.3918 116.164 66.849 122.112 65.1061 127.612L61.4554 125.502C60.8899 125.168 60.2634 124.95 59.6126 124.86C58.9617 124.771 58.2996 124.812 57.6649 124.982C56.3963 125.321 55.3127 126.147 54.6491 127.28C54.6491 127.28 54.649 127.304 54.6268 127.304L43.2031 147.237C42.8744 147.806 42.6616 148.433 42.5769 149.085C42.4922 149.736 42.5372 150.397 42.7094 151.031C43.0173 152.218 43.7556 153.248 44.7809 153.921L41.9317 158.921C41.2764 160.067 41.0969 161.424 41.4317 162.701C41.7665 163.977 42.5889 165.071 43.7221 165.748C43.7221 165.748 43.7444 165.748 43.7444 165.772L101.566 199.335C102.702 199.992 104.051 200.171 105.318 199.833C106.586 199.495 107.667 198.668 108.325 197.534C108.325 197.534 108.325 197.51 108.349 197.51L111.198 192.532C111.904 192.888 112.658 193.054 113.412 193.054C114.29 193.06 115.153 192.829 115.911 192.387C116.669 191.945 117.294 191.308 117.722 190.542L129.122 170.632C129.777 169.487 129.956 168.129 129.622 166.853C129.287 165.576 128.464 164.482 127.331 163.805C127.331 163.805 127.307 163.805 127.307 163.781L122.998 161.293C126.86 157.002 131.688 153.566 137.199 151.196C143.824 148.353 149.63 143.896 154.088 138.231C154.918 137.431 155.624 136.513 156.183 135.505L157.572 133.086L170.856 109.929L174.507 103.555C176.169 100.6 176.617 97.1146 175.755 93.8359H175.756Z" fill="#040303"/>
<path d="M109.492 171.411C109.514 171.386 109.514 171.386 109.539 171.386C109.562 171.41 109.539 171.433 109.539 171.386V171.433L109.492 171.41V171.411ZM107.15 175.544C107.691 175.86 108.289 176.064 108.91 176.147C109.53 176.23 110.161 176.189 110.766 176.026C111.37 175.864 111.936 175.583 112.432 175.2C112.927 174.818 113.342 174.341 113.652 173.797C114.277 172.702 114.445 171.405 114.117 170.187C113.789 168.97 112.993 167.931 111.903 167.298C110.809 166.669 109.509 166.5 108.29 166.828C107.071 167.156 106.032 167.954 105.401 169.048C105.086 169.588 104.882 170.186 104.799 170.806C104.717 171.426 104.758 172.057 104.921 172.661C105.083 173.265 105.364 173.831 105.747 174.326C106.13 174.821 106.607 175.235 107.15 175.544Z" fill="#CC0000"/>
</svg>
