<svg width="200" height="200" viewBox="0 0 200 200" fill="none" xmlns="http://www.w3.org/2000/svg">
<path d="M167.874 175.459C172.124 176.75 176.291 172.584 174.958 168.375L171.291 156.292C171.291 156.292 166.083 156.542 161.124 161.584C156.499 166.375 155.708 171.167 155.666 171.709C155.624 172.25 167.874 175.459 167.874 175.459Z" fill="#949494"/>
<path d="M178.917 167.125C180 170.5 179.083 174.25 176.5 176.875C174.583 178.792 172.042 179.833 169.458 179.833C168.917 179.833 168.417 179.833 167.875 179.708C169.583 179.167 170.792 177.625 170.792 175.75C170.792 173.458 168.917 171.583 166.625 171.583H159.875C160.042 171.042 160.333 170.125 160.917 168.958L169.083 171.458C169.792 171.667 170.375 171.208 170.583 171C170.75 170.792 171.167 170.292 170.958 169.625L168.458 161.375C170.208 160.542 171.417 160.458 171.5 160.417L171.292 156.292L171.083 152.125C171.083 152.125 170.583 152.125 170.042 152.208L166.458 140.5L166 140.167V140.083L168.833 137.125H168.917C169.667 137.708 170.167 138.458 170.417 139.292L178.917 167.167V167.125Z" fill="black"/>
<path d="M171.292 156.292L171.5 160.417C171.5 160.417 170.208 160.542 168.458 161.375L167.25 157.375C169.625 156.375 171.292 156.292 171.292 156.292ZM171.083 152.125L171.292 156.292L170.042 152.208C170.583 152.125 170.958 152.125 171.083 152.125Z" fill="black"/>
<path d="M170.041 152.208L171.291 156.291C171.291 156.291 169.624 156.375 167.249 157.375L166.041 153.375C167.708 152.666 169.124 152.375 170.041 152.208Z" fill="black"/>
<path d="M170.958 169.625C171.166 170.292 170.749 170.792 170.583 171C170.374 171.208 169.791 171.667 169.083 171.458L160.916 168.958C161.541 167.667 162.541 166.083 164.083 164.5C165.624 162.917 167.208 161.958 168.458 161.375L170.958 169.625Z" fill="#F2F2F2"/>
<path d="M166.459 140.5L170.042 152.208C169.126 152.375 167.709 152.667 166.042 153.375L162.917 143.125L163.042 143H163.084L165.917 140.083L166.001 140.167L166.459 140.5ZM168.876 137.042L168.459 136.75C168.376 136.708 168.334 136.667 168.292 136.625H168.251C166.876 135.708 163.876 134 159.709 133.708L128.959 103C130.001 99.7917 128.834 97.4167 128.126 96.375C128.126 96.2917 128.001 96.2083 127.959 96.125L168.917 137.042H168.876Z" fill="black"/>
<path d="M168.417 136.75L168.834 137.083L166.001 140.041H165.959L159.667 133.708C163.834 134 166.834 135.708 168.209 136.625H168.251C168.251 136.625 168.334 136.708 168.417 136.75ZM167.251 157.375L168.459 161.375C167.209 161.958 165.626 162.916 164.084 164.5C162.542 166.083 161.542 167.666 160.917 168.958L156.917 167.75C157.709 165.958 159.042 163.791 161.126 161.583C163.251 159.416 165.459 158.125 167.251 157.375ZM170.792 175.75C170.792 177.625 169.584 179.166 167.876 179.708C167.459 179.625 167.084 179.541 166.667 179.416L154.459 175.708L155.042 173.75L163.292 175.125L159.876 171.708V171.583H166.626C168.917 171.583 170.792 173.458 170.792 175.75Z" fill="black"/>
<path d="M166.042 153.375L167.25 157.375C165.458 158.125 163.25 159.416 161.125 161.583C159.042 163.791 157.708 165.958 156.917 167.75C156.125 169.541 155.458 167.25 155.458 167.25L153.5 165.291C154.458 163.291 155.958 161 158.167 158.666C160.917 155.875 163.75 154.25 166.083 153.375H166.042ZM166.042 140.083V140.166C166.042 140.166 165.958 140.125 165.917 140.083C165.875 140.041 165.958 140.083 165.958 140.083H166H166.042Z" fill="black"/>
<path d="M162.916 143.125L166.041 153.375C163.708 154.25 160.874 155.875 158.124 158.667C155.916 161 154.416 163.292 153.458 165.292L142.541 154.375C143.333 152.417 144.833 150.208 147.291 147.833C154.916 140.375 160.416 141.75 162.916 143.125Z" fill="#A67C52"/>
<path d="M165.958 140V140.083H165.916C164.791 139.292 161.999 137.75 158.083 137.958L154.291 134.167C156.249 133.708 158.041 133.625 159.708 133.708L165.999 140H165.958Z" fill="black"/>
<path d="M165.916 140.084L163.083 143H163.041L158.041 137.959C161.958 137.75 164.749 139.292 165.874 140.084H165.916ZM159.874 171.709L163.291 175.125L155.041 173.75L155.666 171.709H155.833L159.791 172.125C159.791 172.125 159.791 171.959 159.874 171.709Z" fill="black"/>
<path d="M163.041 142.958L162.916 143.125C160.416 141.75 154.916 140.375 147.291 147.833C144.833 150.208 143.333 152.416 142.541 154.375L139.416 151.25C140.499 149.25 142.083 147.125 144.374 144.875C149.708 139.708 154.374 138.083 158.041 137.958L163.041 142.958ZM160.916 168.958C160.333 170.125 160.041 171.041 159.874 171.583H159.749L156.666 168.5L156.791 168L156.874 167.75L160.874 168.958H160.916ZM159.874 171.583V171.708L159.749 171.583H159.874Z" fill="black"/>
<path d="M159.751 171.583L159.876 171.708C159.792 171.958 159.792 172.125 159.792 172.125L155.834 171.708H155.667V171.583H159.751ZM156.667 168.5L159.751 171.583H155.709L156.334 169.542L156.667 168.5ZM159.667 133.708C158.001 133.625 156.209 133.708 154.251 134.167L126.834 106.792C127.876 105.417 128.542 104.167 128.917 103L159.667 133.708Z" fill="black"/>
<path d="M154.25 134.167L158.042 137.959C154.375 138.084 149.708 139.709 144.375 144.875C142.083 147.125 140.5 149.25 139.417 151.25L136.375 148.167C137.583 146.125 139.25 144.042 141.458 141.875C146.125 137.334 150.458 135.084 154.25 134.167ZM156.875 167.709L156.792 168C156.708 168.125 156.667 168.292 156.583 168.417L155.417 167.25L156.875 167.709ZM156.792 168L156.667 168.5L156.625 168.459L156.792 168Z" fill="black"/>
<path d="M156.584 168.417C156.584 168.417 156.709 168.125 156.792 168L156.626 168.458H156.584V168.417ZM156.626 168.458L156.667 168.5L156.334 169.542L156.626 168.458Z" fill="black"/>
<path d="M156.624 168.459L156.333 169.542L155.666 171.584C155.666 171.125 155.958 169.959 156.583 168.417H156.624V168.459Z" fill="black"/>
<path d="M155.416 167.25L156.583 168.417C155.958 169.958 155.708 171.125 155.666 171.583H155.249L151.666 170.458C151.791 169.708 152.083 168.667 152.541 167.375C152.624 167.083 152.749 166.792 152.874 166.5L155.416 167.25ZM155.708 171.583L155.666 171.708V171.583H155.708ZM155.666 171.583V171.708H155.624L155.249 171.583H155.666Z" fill="black"/>
<path d="M155.667 171.708L155.042 173.75H155L155.625 171.708H155.667Z" fill="#3D3D3D"/>
<path d="M155.626 171.708L155.001 173.75L144.792 172.041L144.334 171.583H151.501V171.708H155.626Z" fill="black"/>
<path d="M155.626 171.709H151.501V171.584H155.251L155.626 171.709ZM153.459 165.292L155.417 167.25L152.876 166.5C153.042 166.125 153.209 165.709 153.459 165.292ZM155.251 171.584H151.501C151.501 171.375 151.501 171 151.667 170.459L155.251 171.584ZM155.001 173.75L154.417 175.667L141.084 171.584H144.334L144.792 172.042L155.001 173.75Z" fill="black"/>
<path d="M126.833 106.792L154.25 134.167C150.458 135.084 146.125 137.334 141.458 141.875C139.25 144.042 137.583 146.125 136.375 148.167L47 58.792C47.875 56.542 49.2917 54.167 51.4583 52.167C58.25 45.9587 63.5833 45.5003 65.8333 45.7087L68.0833 47.9587C67.4583 48.3753 66.875 48.8753 66.25 49.5003C61.0833 54.7087 62.5 60.1253 64 62.2503C64.125 62.417 64.2917 62.6254 64.4583 62.792L111.875 110.209C112.792 111.292 114.5 112.375 116.667 112.542C116.875 112.542 117.042 112.584 117.25 112.584C119.917 112.584 122.625 111.209 125.292 108.5C125.875 107.917 126.375 107.334 126.833 106.792Z" fill="#FBB03B"/>
<path d="M142.541 154.375L153.458 165.292C153.208 165.708 153.041 166.125 152.874 166.5L142.624 163.333L142.541 163.167C141.624 161.458 140.749 158.417 142.541 154.375Z" fill="#FFFF66"/>
<path d="M152.874 166.5C152.749 166.792 152.624 167.084 152.541 167.375C152.083 168.667 151.791 169.709 151.666 170.459L140.041 166.917C140.041 166.917 139.874 166.75 139.666 166.459L140.583 165.084L142.416 163.25L142.541 163.167C142.541 163.167 142.583 163.292 142.624 163.334L152.874 166.5Z" fill="black"/>
<path d="M140.041 166.916L151.666 170.458C151.541 171 151.499 171.375 151.499 171.583H144.333L139.541 166.666L139.666 166.458C139.874 166.75 140.041 166.916 140.041 166.916Z" fill="black"/>
<path d="M137.459 169.708L139.542 166.667L144.334 171.583H141.084L138.792 170.875C138.209 170.708 137.542 170.292 137.084 169.833C137.084 169.833 136.751 169.542 136.334 168.917L136.542 169.125L139.292 166.417L139.501 166.625L137.459 169.708ZM139.417 151.25L142.542 154.375C140.751 158.417 141.626 161.458 142.542 163.167L142.417 163.25L142.042 162.917L137.376 158.208C137.459 156.125 138.001 153.792 139.417 151.25Z" fill="black"/>
<path d="M142.417 163.25L140.584 165.083L142.042 162.916L142.417 163.25ZM137.376 158.208L142.042 162.916L141.917 162.833L140.251 165.416L139.501 166.166C138.626 164.875 137.167 162.041 137.376 158.208Z" fill="black"/>
<path d="M142.042 162.916L140.583 165.083L140.25 165.416L141.917 162.833L142.042 162.916Z" fill="black"/>
<path d="M140.583 165.083L139.667 166.458C139.667 166.458 139.625 166.458 139.625 166.375L140.25 165.416L140.583 165.083ZM140.25 165.416L139.625 166.375H139.583C139.583 166.375 139.5 166.25 139.5 166.208C139.5 166.166 140.25 165.416 140.25 165.416Z" fill="black"/>
<path d="M139.624 166.375C139.624 166.375 139.666 166.416 139.666 166.458L139.541 166.666L139.666 166.375H139.624ZM139.624 166.375L139.499 166.625L139.291 166.416L139.458 166.208H139.499C139.499 166.208 139.499 166.291 139.583 166.333H139.624V166.375Z" fill="black"/>
<path d="M139.542 166.667L137.458 169.708L139.5 166.625L139.542 166.667ZM139.5 166.167L139.458 166.208L133.167 159.917C133.125 159.542 133.125 159.167 133.125 158.792C133.125 157.458 133.292 156 133.625 154.5L137.375 158.208C137.167 162.042 138.625 164.875 139.5 166.167Z" fill="black"/>
<path d="M133.166 159.917L139.458 166.209L139.291 166.375L133.208 160.167C133.208 160.167 133.166 160 133.166 159.917ZM136.374 148.167L139.416 151.25C137.999 153.792 137.458 156.125 137.374 158.209L133.624 154.5C134.124 152.5 134.999 150.375 136.374 148.167Z" fill="black"/>
<path d="M139.292 166.375L136.542 169.125L136.334 168.917C136.334 168.917 136.209 168.75 136.126 168.625L136.001 168.5C135.084 167.125 133.501 164.167 133.209 160.167L139.292 166.375Z" fill="black"/>
<path d="M47.0006 58.792L136.376 148.167C135.001 150.375 134.126 152.5 133.626 154.5L63.959 85.0003L61.834 87.167H61.7923V87.0837L63.9173 84.917L52.209 73.2087L45.459 66.4587C45.5007 64.8337 45.7506 61.8753 47.0006 58.792Z" fill="#FFFF66"/>
<path d="M136.334 168.917L58.084 90.875L61.0423 87.9583L123.042 149.792L133.209 160.167C133.501 164.167 135.084 167.125 136.001 168.5L136.126 168.625C136.126 168.625 136.251 168.833 136.334 168.917ZM63.959 85L133.626 154.5C133.292 156 133.126 157.458 133.126 158.792C133.126 159.167 133.126 159.542 133.167 159.917L123.042 149.792L61.834 87.1667L63.959 85Z" fill="black"/>
<path d="M133.166 159.917C133.166 159.917 133.166 160.084 133.208 160.167L123.041 149.792L133.166 159.917ZM128.083 96.3753C128.791 97.417 129.958 99.792 128.916 103L124.541 98.6253L127.458 95.667L127.833 96.0003C127.833 96.0003 127.874 96.0837 127.916 96.1253C127.958 96.2087 128.041 96.292 128.083 96.3753Z" fill="black"/>
<path d="M124.542 98.6247L128.917 103C128.542 104.166 127.875 105.416 126.833 106.791L123.875 103.833C125.875 101.083 125.125 99.3747 124.542 98.6247ZM127.833 95.9997L127.458 95.6663L124.542 98.583H124.5L124.333 98.3747L127.125 95.333H127.167C127.167 95.333 127.542 95.6663 127.833 95.9997Z" fill="black"/>
<path d="M127.167 95.292H127.126L124.209 98.2503H124.167L127.084 95.2503L90.4173 58.5837L79.584 47.667L127.126 95.2503H127.167V95.292Z" fill="black"/>
<path d="M127.125 95.333L124.334 98.3747L124.209 98.2497L127.125 95.333ZM127.084 95.2497L124.167 98.208H124.125L87.4585 61.5413V61.4997L90.4169 58.583L127.084 95.2497ZM123.875 103.833L126.834 106.791C126.375 107.333 125.875 107.916 125.292 108.5C122.625 111.208 119.917 112.583 117.25 112.583C117.042 112.583 116.875 112.541 116.667 112.541C114.5 112.375 112.792 111.291 111.875 110.208L64.4585 62.7913C64.4585 62.7913 64.1252 62.4163 64.0002 62.2497C62.5002 60.1247 61.0835 54.708 66.2502 49.4997C66.8752 48.8747 67.4585 48.3747 68.0835 47.958L70.1669 50.0413H70.1252L71.0419 50.958C70.4585 51.333 69.8335 51.833 69.2085 52.458C65.1252 56.583 67.4169 59.8747 67.4169 59.8747L114.959 107.416C114.959 107.416 117.334 110.625 122.375 105.583C123 104.958 123.5 104.375 123.875 103.833Z" fill="black"/>
<path d="M124.542 98.625C125.125 99.375 125.875 101.083 123.875 103.833L121.625 101.542L124.542 98.625Z" fill="black"/>
<path d="M121.625 101.542L123.875 103.833C123.5 104.375 123 104.958 122.375 105.583C117.333 110.625 114.958 107.417 114.958 107.417L67.4163 59.875C67.4163 59.875 65.1247 56.5833 69.208 52.4583C69.833 51.8333 70.458 51.3333 71.0413 51L71.583 51.5L72.1247 52.0417L72.708 52.625C72.708 52.625 72.958 52.875 73.083 52.9583L73.6246 53.5L73.7497 53.375C73.7497 53.375 73.7913 53.375 73.7913 53.4167L73.6663 53.5417L74.208 54.0833C73.7913 54.0833 73.0413 54.4583 72.1663 55.375C71.2913 56.25 70.9163 57.0417 70.9163 57.5L117.541 104.083C117.916 103.917 118.541 103.5 119.416 102.625C120.291 101.75 120.666 101.125 120.875 100.792L121.208 101.125L124.125 98.2083H124.208L121.25 101.167L121.541 101.458L124.333 98.375L124.5 98.5417H124.541V98.625L121.625 101.542Z" fill="black"/>
<path d="M124.333 98.3753L121.541 101.459L121.249 101.167L124.208 98.2503L124.333 98.3753ZM87.4577 61.542L124.124 98.2087L121.208 101.125L120.874 100.792L84.541 64.4587V64.417L87.4577 61.542ZM123.041 149.792L61.041 87.9587V87.917L61.791 87.167H61.8327L123.041 149.792Z" fill="black"/>
<path d="M84.541 64.458L120.874 100.791C120.666 101.125 120.291 101.75 119.416 102.625C118.541 103.5 117.916 103.916 117.541 104.083L70.916 57.4997C70.916 57.0413 71.291 56.2497 72.166 55.3747C73.041 54.458 73.791 54.1247 74.2077 54.083L84.4994 64.458H84.541Z" fill="#CC0000"/>
<path d="M79.5833 47.667L90.4167 58.5837L87.4583 61.5003L76.625 50.6253L79.5833 47.667Z" fill="black"/>
<path d="M87.4577 61.5L84.541 64.4167L74.2077 54.0833L73.666 53.5417L73.791 53.4167C74.3743 53.7083 75.041 53.875 75.7077 53.875V51.5L76.6243 50.625L87.4577 61.5ZM84.541 64.4167V64.4583H84.4994L74.2077 54.0833L84.541 64.4167Z" fill="black"/>
<path d="M79.584 47.6667L76.6257 50.625H76.584L79.5007 47.625H79.584V47.6667Z" fill="black"/>
<path d="M78.6673 46.7497L79.5007 47.6247C79.2751 47.3719 79.0072 47.1605 78.709 46.9997C78.3757 46.7913 78.0007 46.6247 77.584 46.458L77.959 46.083L78.2923 46.4163C78.2923 46.4163 78.5423 46.6247 78.6673 46.7497Z" fill="black"/>
<path d="M79.4994 47.6247L76.5827 50.583L75.7494 49.7497H75.7077L75.666 49.708L75.041 49.083L77.5827 46.458C77.9993 46.6247 78.3744 46.7913 78.7077 46.9997C79.0059 47.1605 79.2738 47.3719 79.4994 47.6247ZM70.7493 38.833L77.9577 46.083L75.9577 44.1247L74.3327 45.7913C73.5827 45.7913 72.8327 45.8747 72.041 46.083L67.791 41.7913L70.7493 38.833Z" fill="black"/>
<path d="M77.959 46.0833L77.584 46.4583C76.6256 46.0417 75.5007 45.7917 74.334 45.7917L75.959 44.125L77.959 46.0833Z" fill="black"/>
<path d="M77.5833 46.4587L75.0417 49.042L73.0417 47.0837L74.3333 45.792C75.5 45.792 76.625 46.042 77.5833 46.4587ZM76.625 50.6253L75.7083 51.5003L76.5833 50.5837H76.625V50.6253ZM76.5833 50.5837L75.7083 51.4587L73.7917 53.417C73.7917 53.3753 73.75 53.3753 73.75 53.3753L73.625 53.5003L73.0833 52.9587C73.0833 52.9587 72.8333 52.7503 72.7083 52.6253L72.125 52.042L74.1667 49.9587C75.5 49.9587 76.375 50.4587 76.5833 50.5837Z" fill="black"/>
<path d="M75.7494 49.7497L76.5827 50.583C76.3743 50.458 75.4994 49.958 74.166 49.958L75.041 49.083L75.666 49.708H75.7494V49.7497ZM75.7077 51.4997V53.8747C75.041 53.8747 74.3743 53.708 73.791 53.4163L75.7077 51.4997Z" fill="black"/>
<path d="M75.041 49.042L74.166 49.9587C73.291 49.9587 72.2077 50.2503 71.041 50.9587L70.166 50.042L73.041 47.0837L75.041 49.042ZM74.3327 45.792L73.041 47.0837L72.041 46.0837C72.8327 45.8753 73.5827 45.792 74.3327 45.792Z" fill="black"/>
<path d="M74.1673 49.958L72.1257 52.0413L71.584 51.4997L71.0423 50.958C72.209 50.2497 73.2923 49.958 74.1673 49.958ZM73.0423 47.083L70.1673 50.0413L68.084 47.958C69.4173 46.958 70.7923 46.3747 72.0423 46.083L73.0423 47.083Z" fill="black"/>
<path d="M67.7917 41.7914L72.0417 46.083C70.7917 46.3747 69.4167 46.958 68.0833 47.958L65.8333 45.708C66.2917 45.708 66.625 45.7914 66.8333 45.833C67.125 45.9164 67.4583 45.9164 67.7917 45.9164V41.7914ZM71.0417 50.958L71.5833 51.4997L71.0417 50.9997V50.958ZM70.1667 50.0414L71.0417 50.958L70.125 50.083L70.1667 50.0414ZM64.6667 32.7914L70.6667 38.833L67.75 41.7497V41.6664L68.6667 37.708C67.7083 37.4997 65.875 37.208 63.375 37.4164L61.7083 35.7497C57.1667 31.208 50.0417 30.708 44.625 34.1664C44.8333 32.708 44.5417 31.1664 43.75 29.8747C50.5833 26.2914 59.0833 27.2497 64.6667 32.7914Z" fill="black"/>
<path d="M68.6667 37.7087L67.75 41.667V41.7504H67.7083L63.375 37.3754C65.875 37.167 67.7083 37.4587 68.6667 37.667V37.7087ZM67.75 41.792V45.9171C67.4583 45.9171 67.125 45.9171 66.8333 45.8337C66.625 45.7921 66.2917 45.7087 65.8333 45.7087L64.8333 44.7087L67.75 41.792Z" fill="black"/>
<path d="M67.7494 41.792L64.8327 44.7087L67.7077 41.792H67.7494ZM63.3744 37.417L67.7077 41.792C67.2077 41.667 65.0827 41.2087 61.916 41.8337L58.7493 38.667C58.7493 38.667 58.541 38.4587 58.416 38.417C60.2493 37.8337 61.916 37.542 63.3744 37.417Z" fill="black"/>
<path d="M67.7077 41.792L64.8327 44.7087H64.791L61.916 41.8337C65.0827 41.2087 67.2077 41.667 67.7077 41.792Z" fill="black"/>
<path d="M65.8325 45.7081C63.5825 45.4998 58.2491 45.9581 51.4575 52.1664C49.2908 54.1664 47.8741 56.5414 46.9991 58.7914L43.8741 55.6664C44.9575 53.4164 46.4991 51.1664 48.6658 49.1248C53.8741 44.3748 58.4991 42.4998 61.9158 41.8331L64.7908 44.7081H64.8325L65.8325 45.7081ZM63.6658 102.375C65.3325 104 65.3325 106.625 63.6658 108.25C62.8741 109.083 61.7908 109.458 60.7491 109.458C59.7075 109.458 58.6241 109.083 57.7908 108.25L25.5825 76.0414C23.9989 74.4656 22.7423 72.5925 21.8848 70.5296C21.0273 68.4666 20.5859 66.2546 20.5859 64.0206C20.5859 61.7866 21.0273 59.5746 21.8848 57.5117C22.7423 55.4487 23.9989 53.5756 25.5825 51.9998L27.4991 50.0831C26.9158 53.9164 27.5408 57.7914 29.4158 61.2081C29.0825 62.1248 28.9158 63.0414 28.9158 64.0414C28.9158 66.3331 29.8325 68.4998 31.4575 70.1664L63.6658 102.375ZM63.9158 84.9165L61.7491 87.0831L50.1658 75.2498L52.2075 73.2081L63.9158 84.9165ZM61.7075 35.7498L63.3741 37.4164C61.9158 37.5414 60.2491 37.8331 58.4158 38.4164C54.7491 34.9998 48.7908 35.3331 44.9575 39.1248L38.6658 45.4164C37.7908 46.2914 37.0825 47.2914 36.5825 48.3748L33.9575 45.7498L32.4158 47.6664C32.8325 46.4998 33.4158 45.3748 34.2075 44.3331C35.7491 44.2081 37.2491 43.5831 38.4575 42.4164L38.5408 42.3331L42.7075 38.1664C43.8325 37.0414 44.4575 35.6248 44.6241 34.1664C50.0408 30.7081 57.1658 31.2081 61.7075 35.7498Z" fill="black"/>
<path d="M58.75 38.667L61.9167 41.8337C58.5 42.5003 53.875 44.3753 48.6667 49.1253C46.6801 50.9921 45.0556 53.2099 43.875 55.667L40.75 52.542C42 50.292 43.625 48.0837 45.8333 46.042C50.4583 41.792 54.7917 39.542 58.4167 38.417C58.5417 38.4587 58.6667 38.5837 58.75 38.667Z" fill="black"/>
<path d="M61.75 87.083L61.7917 87.1663L61.0417 87.9163L61 87.8747L61.75 87.083Z" fill="#3D3D3D"/>
<path d="M61.7493 87.0833L60.9993 87.875L49.291 76.1667L50.166 75.25L61.7493 87.0833Z" fill="black"/>
<path d="M61.0007 87.8753L58.0423 90.792L46.334 79.1253L49.2507 76.167H49.2923L61.0007 87.8753Z" fill="black"/>
<path d="M44.959 39.1251C48.7923 35.3334 54.7506 35.0001 58.4173 38.4168C54.7923 39.5418 50.459 41.7918 45.834 46.0418C43.6257 48.0834 42.0007 50.2918 40.7507 52.5418L36.584 48.3751C37.084 47.2918 37.7923 46.2918 38.6673 45.4168L44.959 39.1251Z" fill="#A67C52"/>
<path d="M52.2083 73.1663L50.1667 75.2497L43.375 68.2913H45.5417C45.5417 68.2913 45.5417 67.958 45.5 67.833C45.5 67.833 45.4583 67.2913 45.4583 66.458L52.2083 73.1663Z" fill="black"/>
<path d="M50.1667 75.2503L49.2917 76.167H49.25L45.8333 72.7503L41.375 68.292H43.375L50.1667 75.2503Z" fill="black"/>
<path d="M45.8327 72.75L49.2494 76.1667L46.3327 79.125L32.291 65.125C31.1243 63.9583 30.166 62.625 29.416 61.2083C29.8327 59.9583 30.4993 58.8333 31.4577 57.875L32.166 57.1667C32.791 59 33.791 60.75 35.2493 62.2083L37.291 64.2083C37.041 66.625 37.2077 68.2083 37.2077 68.25H41.3743L45.8327 72.75ZM43.8744 55.6667L46.9994 58.7917C45.7494 61.875 45.4994 64.8333 45.4577 66.4583L41.7077 62.7083C42.041 60.625 42.666 58.1667 43.8744 55.6667ZM45.4994 67.8333C45.4994 67.8333 45.541 68.1667 45.541 68.2917H43.3327L41.3743 66.25C41.3743 65.2917 41.4577 64.0833 41.7077 62.7083L45.4577 66.4583C45.4577 67.2917 45.4994 67.8333 45.4994 67.8333ZM43.7494 29.875C44.541 31.1667 44.8327 32.7083 44.6243 34.1667C43.7077 34.7083 42.8327 35.4167 42.041 36.2083L35.7493 42.5C35.166 43.0833 34.666 43.7083 34.2077 44.3333C34.041 44.375 33.8327 44.375 33.666 44.375C32.3744 44.375 31.0827 44 29.9577 43.2083C30.6244 42 31.4993 40.9167 32.4577 39.875C33.4577 40.4167 34.7077 40.25 35.5827 39.4167L39.7494 35.25C40.5827 34.4167 40.7494 33.1667 40.2494 32.1667C41.3327 31.25 42.4994 30.4583 43.7494 29.875Z" fill="black"/>
<path d="M40.7507 52.5414L43.8757 55.6664C42.6673 58.1664 42.0423 60.6247 41.709 62.708L38.209 59.2497H38.1673V59.1664C38.709 57.083 39.5423 54.7914 40.7507 52.5414ZM42.709 28.4997C43.1257 28.9164 43.459 29.3747 43.7507 29.8747C42.5007 30.458 41.334 31.2497 40.2507 32.1664C40.1227 31.9052 39.9539 31.6661 39.7507 31.458L33.4173 25.1247C32.9132 24.6245 32.2317 24.3438 31.5215 24.3438C30.8113 24.3438 30.1298 24.6245 29.6256 25.1247L25.4173 29.2914C24.3757 30.333 24.3757 32.0414 25.4173 33.083L31.7923 39.4164C32.0007 39.6247 32.209 39.7914 32.459 39.8747C31.5006 40.9164 30.6257 41.9997 29.959 43.208C29.5423 42.9997 29.1673 42.6664 28.834 42.333L22.459 35.9997C19.7923 33.333 19.7923 28.9997 22.459 26.333L26.6673 22.1247C29.334 19.4997 33.6673 19.4997 36.3757 22.1664L42.709 28.4997ZM44.6257 34.1664C44.459 35.6247 43.834 37.0414 42.709 38.1664L38.5423 42.333L38.459 42.4164C37.2507 43.583 35.7507 44.208 34.209 44.333C34.6673 43.708 35.1673 43.083 35.7506 42.4997L42.0423 36.208C42.834 35.4164 43.709 34.708 44.6257 34.1664ZM41.3757 66.2497L43.334 68.2914H41.3757C41.3757 68.0414 41.2923 67.333 41.3757 66.2497Z" fill="black"/>
<path d="M38.2083 59.2497L41.7083 62.708C41.4583 64.083 41.375 65.2913 41.375 66.2497L37.5 62.2913C37.6667 61.333 37.875 60.2913 38.1667 59.208H38.2083V59.2497ZM41.375 68.2497V68.2913L41.3333 68.2497H41.375Z" fill="black"/>
<path d="M41.3743 66.2503C41.291 67.3337 41.3743 68.042 41.3743 68.2503H41.3327L37.291 64.2087C37.3327 63.6253 37.416 62.9587 37.4993 62.292L41.3743 66.2503Z" fill="black"/>
<path d="M41.3337 68.2497H37.2087C37.2087 68.2497 37.0421 66.6247 37.2921 64.208L41.3337 68.2497Z" fill="black"/>
<path d="M36.5829 48.375L40.7496 52.5417C39.5413 54.7917 38.7079 57.0833 38.1663 59.1667C37.2697 58.2647 36.5784 57.1798 36.1397 55.986C35.7011 54.7923 35.5254 53.5179 35.6246 52.25V51.9583C35.7079 50.75 36.0413 49.5 36.5829 48.375Z" fill="#FFFF66"/>
<path d="M40.2507 32.167C40.7507 33.167 40.584 34.417 39.7507 35.2503L35.584 39.417C35.1799 39.8163 34.6588 40.0761 34.0966 40.1586C33.5345 40.241 32.9608 40.1418 32.459 39.8753L32.7923 39.542L39.084 33.2503C39.459 32.8753 39.834 32.5003 40.2507 32.167Z" fill="black"/>
<path d="M40.249 32.1667C39.8324 32.5 39.4574 32.875 39.0824 33.25L32.7907 39.5417L32.4574 39.875C32.2023 39.7765 31.974 39.6195 31.7907 39.4167L25.4157 33.0833C24.9155 32.5792 24.6348 31.8977 24.6348 31.1875C24.6348 30.4773 24.9155 29.7958 25.4157 29.2917L29.624 25.125C30.6657 24.0833 32.374 24.0833 33.4157 25.125L39.749 31.4583C39.9574 31.6667 40.124 31.9167 40.249 32.1667ZM33.6657 35.4167L35.749 33.3333L31.499 29.0833L29.4157 31.1667L33.6657 35.4167ZM38.1657 59.1667C37.874 60.2917 37.6657 61.3333 37.499 62.2917L32.3324 57L34.4157 54.9583C35.1657 54.2083 35.5824 53.2083 35.624 52.25C35.4574 54.7917 36.2907 57.2917 38.1657 59.1667Z" fill="black"/>
<path d="M32.3327 57L37.4993 62.2917C37.416 62.9583 37.3327 63.625 37.291 64.2083L35.2493 62.2083C33.791 60.75 32.791 59 32.166 57.1667L32.3327 57ZM33.9577 45.75L36.5827 48.375C36.041 49.5 35.7077 50.75 35.6243 51.9583C35.5827 50.9167 35.166 49.875 34.3743 49.0833C33.8138 48.5085 33.0835 48.1288 32.291 48C32.291 48 32.3743 47.75 32.416 47.6667L33.9577 45.75Z" fill="black"/>
<path d="M29.4414 31.1747L31.5331 29.083L35.7747 33.3247L33.6831 35.4163L29.4414 31.1747Z" fill="#F2F2F2"/>
<path d="M35.625 51.958V52.2497C35.5833 53.208 35.1667 54.208 34.4167 54.958L32.3333 56.9997L32.0417 56.708C31.1667 53.8747 31.2917 50.833 32.2917 47.9997C33.0842 48.1284 33.8144 48.5082 34.375 49.083C35.1667 49.8747 35.5833 50.9163 35.625 51.958ZM33.6667 44.3747C33.6667 44.3747 34.0417 44.3747 34.2083 44.333C33.4167 45.3747 32.8333 46.4997 32.4167 47.6663L32.2083 47.958H32.1667C31.5101 47.8294 30.832 47.8649 30.1924 48.0611C29.5528 48.2573 28.9715 48.6083 28.5 49.083L27.5 50.083C27.8333 47.708 28.6667 45.333 29.9583 43.208C31.0833 43.9997 32.375 44.3747 33.6667 44.3747Z" fill="black"/>
<path d="M32.4167 47.667C32.4167 47.667 32.3333 47.8753 32.2917 47.9587H32.2083L32.4167 47.667ZM32.3333 57.0003L32.1667 57.167C32.1667 57.167 32.0417 56.8337 32.0417 56.7087L32.3333 57.0003ZM32.2917 47.9587C31.2917 50.8337 31.1667 53.8753 32.0417 56.7087L28.25 52.8337L32.1667 47.9587H32.2917Z" fill="black"/>
<path d="M32.0414 56.7088L32.1664 57.1671L31.458 57.8755C30.4997 58.8338 29.833 59.9588 29.4164 61.2088C27.5414 57.7921 26.9164 53.9171 27.4997 50.0838L28.4997 49.0838C29.4997 48.0838 30.8747 47.7088 32.1664 47.9588L28.2497 52.8338L32.0414 56.7088Z" fill="black"/>
</svg>
