<svg width="200" height="200" viewBox="0 0 200 200" fill="none" xmlns="http://www.w3.org/2000/svg">
<path d="M83.4593 53.7913C99.9176 70.083 116.668 85.958 132.459 102.916C135.251 104.958 132.876 110.541 133.793 112.083L155.293 130.75C157.584 141.041 165.376 153.875 167.459 163.583C168.334 167.583 166.168 171.166 161.834 170.666C152.376 169.583 138.584 163.583 128.959 161.25L108.918 138.375C103.168 138.125 100.959 137.625 96.5426 133.875L29.8759 64.833C24.0843 56.9163 24.7509 48.208 30.7926 40.6663C53.2926 12.583 66.5426 37.083 83.4593 53.7913ZM78.2926 59.6663L77.5843 57.9163L54.8759 35.583C48.9176 33.4163 44.6676 36.708 41.0009 41.0413L65.5843 66.458C68.9176 67.4997 74.0009 59.4997 78.2509 59.6663H78.2926ZM36.7926 45.6247C32.2926 49.2913 32.0009 55.708 35.0843 60.3747C35.6259 61.1663 36.5009 61.4163 36.7926 61.7913C45.2093 71.958 55.0426 81.5413 64.2093 90.9997C75.1676 102.291 86.6676 113.125 97.6259 124.375C98.4593 122.958 98.6259 120.875 99.3759 119.458C103.043 112.541 112.293 104.25 119.084 100.458L118.751 99.0413L82.5009 62.7913C73.6676 63.3747 70.4593 75.708 61.0843 68.7913C59.0009 67.2497 57.1676 64.4997 55.0843 62.833L38.2093 44.4997C37.4593 43.7497 37.1259 45.333 36.7926 45.583V45.6247ZM104.334 121.583C103.418 123.25 102.126 124.625 102.168 126.875C102.209 128.541 104.584 131.75 105.751 130.291C106.751 129.083 107.751 126.125 108.543 125.083C112.459 119.916 118.209 114.791 122.959 110.291C124.626 108.666 128.251 107.625 124.418 105.375C121.209 103.5 117.834 106.791 115.251 108.958C111.168 112.333 106.876 116.916 104.334 121.583ZM114.168 128.625C113.668 129.333 111.293 129.833 112.376 131.416L131.959 154.416C134.001 156.083 144.793 158.75 147.584 158.833C151.626 158.958 147.918 156 145.793 155.333C145.668 152.916 140.918 151.291 143.959 148.958C147.751 146.041 152.626 153.5 155.626 155.333C153.668 149.625 152.084 142.416 149.626 137.041C147.709 132.833 135.584 122.916 131.334 119.458C130.084 118.458 127.126 115.666 125.876 116C124.001 116.5 115.709 126.458 114.126 128.583L114.168 128.625Z" fill="#040303"/>
<path d="M36.7907 45.6251C37.0824 45.3751 37.4157 43.7918 38.2074 44.5418L55.0824 62.8751C57.1657 64.5418 58.9991 67.2918 61.0824 68.8334C70.4574 75.7084 73.7074 63.4168 82.499 62.8334L118.749 99.0834L119.082 100.5C112.332 104.292 103.041 112.583 99.374 119.5C93.9574 116.667 90.124 110.708 86.0407 106.458C71.1657 91.0417 55.749 76.2501 40.999 60.7084C40.2907 59.9584 38.9574 59.7918 38.874 59.7084C36.5407 57.1668 35.0407 48.9168 36.749 45.6251H36.7907Z" fill="#F3BB23"/>
<path d="M114.166 128.625C115.749 126.5 123.999 116.542 125.916 116.042C127.166 115.709 130.124 118.5 131.374 119.5C135.666 122.959 147.749 132.875 149.666 137.084C152.124 142.459 153.708 149.667 155.666 155.375C152.666 153.5 147.791 146.084 143.999 149C140.958 151.334 145.666 152.959 145.833 155.375C142.499 154.334 137.874 154.5 134.916 151.834L114.166 128.625ZM131.541 135.042C125.041 136.875 136.624 147.625 138.999 147.459C140.583 147.334 141.666 146.084 141.666 144.459C141.666 142.292 133.958 134.375 131.541 135.042Z" fill="#C6C5C2"/>
<path d="M78.291 59.6663C73.9994 59.4997 68.9577 67.4997 65.6244 66.458L41.041 41.0413C44.666 36.708 48.916 33.4163 54.916 35.583L77.6244 57.9163L78.3327 59.6663H78.291Z" fill="#E32628"/>
<path d="M99.3743 119.459C98.6243 120.875 98.4577 122.959 97.6244 124.375C86.6244 113.084 75.166 102.292 64.2077 91.0003C55.041 81.542 45.2077 71.9587 36.791 61.792C39.0827 62.0003 39.1243 61.9587 38.916 59.667C38.9993 59.792 40.3327 59.917 41.041 60.667C55.791 76.2087 71.2077 91.042 86.0827 106.417C90.2077 110.667 94.041 116.625 99.416 119.459H99.3743Z" fill="#F4DC89"/>
<path d="M145.833 155.333C147.958 156 151.625 158.958 147.625 158.833C144.833 158.75 134.041 156.042 132 154.417L112.416 131.417C111.333 129.792 113.666 129.333 114.208 128.625L134.958 151.833C137.916 154.5 142.5 154.292 145.875 155.375L145.833 155.333Z" fill="#F3F2F2"/>
<path d="M108.542 125.083C106.626 124.875 105.334 123.083 104.334 121.583C106.876 116.917 111.167 112.333 115.251 108.958C117.834 106.833 121.209 103.5 124.417 105.375C128.251 107.625 124.626 108.708 122.959 110.292C118.251 114.792 112.459 119.917 108.542 125.083Z" fill="#B6B5B1"/>
<path d="M38.9175 59.6667C39.1259 61.9583 39.0842 62 36.7925 61.7917C36.4592 61.4167 35.6259 61.1667 35.0842 60.375C32.0009 55.7083 32.2925 49.2917 36.7925 45.625C35.0425 48.9167 36.5842 57.1667 38.9175 59.7083V59.6667Z" fill="#F2D57F"/>
<path d="M108.541 125.083C107.791 126.083 106.749 129.041 105.749 130.291C104.541 131.75 102.208 128.541 102.166 126.875C102.083 124.583 103.416 123.25 104.332 121.583C105.332 123.083 106.624 124.916 108.541 125.083Z" fill="#ECEBE9"/>
<path d="M131.541 135.042C133.958 134.375 141.666 142.25 141.666 144.459C141.666 146.084 140.624 147.334 138.999 147.459C136.624 147.667 124.999 136.875 131.541 135.042Z" fill="#070807"/>
</svg>
