<svg width="200" height="200" viewBox="0 0 200 200" fill="none" xmlns="http://www.w3.org/2000/svg">
<mask id="path-1-outside-1_343_136" maskUnits="userSpaceOnUse" x="32.8887" y="46.6514" width="135" height="153" fill="black">
<rect fill="white" x="32.8887" y="46.6514" width="135" height="153"/>
<path d="M162.129 46.6514V176.133C162.129 185.865 154.24 193.748 144.52 193.748H55.498C45.7777 193.748 37.8887 185.864 37.8887 176.133V46.6514"/>
</mask>
<path d="M162.129 46.6514V176.133C162.129 185.865 154.24 193.748 144.52 193.748H55.498C45.7777 193.748 37.8887 185.864 37.8887 176.133V46.6514" fill="#FBB03B"/>
<path d="M162.129 46.6514H157.129V176.133H162.129H167.129V46.6514H162.129ZM162.129 176.133H157.129C157.129 183.104 151.479 188.748 144.52 188.748V193.748V198.748C157.002 198.748 167.129 188.627 167.129 176.133H162.129ZM144.52 193.748V188.748H55.498V193.748V198.748H144.52V193.748ZM55.498 193.748V188.748C48.5394 188.748 42.8887 183.103 42.8887 176.133H37.8887H32.8887C32.8887 188.625 43.016 198.748 55.498 198.748V193.748ZM37.8887 176.133H42.8887V46.6514H37.8887H32.8887V176.133H37.8887Z" fill="black" mask="url(#path-1-outside-1_343_136)"/>
<path d="M99.9883 46.6514V193.75H144.52C154.24 193.75 162.129 185.865 162.129 176.134V46.6514H99.9883Z" fill="#FBB03B"/>
<path d="M62.5312 86.2314H74.8656V154.172H62.5312V86.2314ZM93.8344 86.2314H106.17V154.172H93.8344V86.2314Z" fill="#D98D1B"/>
<path d="M125.141 86.2314H137.477V154.172H125.141V86.2314Z" fill="#CA7C18"/>
<path d="M175.045 31.8379C178.95 31.8819 182.68 33.4643 185.426 36.2412C188.172 39.0182 189.712 42.7665 189.712 46.6719C189.712 50.5771 188.172 54.3246 185.426 57.1016C182.68 59.8785 178.95 61.4609 175.045 61.5049H24.9336C21.0497 61.4292 17.3498 59.8331 14.6299 57.0596C11.9101 54.2862 10.3868 50.5563 10.3867 46.6719C10.3867 42.7872 11.9099 39.0567 14.6299 36.2832C17.3498 33.5097 21.0497 31.9136 24.9336 31.8379H175.045Z" fill="#CC0000" stroke="black" stroke-width="5"/>
<path d="M100.006 34.3379H175.015C176.635 34.3377 178.239 34.6565 179.735 35.2762C181.232 35.8959 182.591 36.8043 183.737 37.9495C184.882 39.0948 185.791 40.4544 186.411 41.9508C187.031 43.4472 187.35 45.051 187.35 46.6707C187.35 48.2906 187.031 49.8947 186.412 51.3913C185.792 52.888 184.883 54.2479 183.738 55.3933C182.592 56.5388 181.233 57.4473 179.736 58.067C178.239 58.6867 176.635 59.0055 175.015 59.0051H100.006V34.3379Z" fill="#CC0000"/>
<mask id="path-8-outside-2_343_136" maskUnits="userSpaceOnUse" x="58.4707" y="1.25" width="84" height="29" fill="black">
<rect fill="white" x="58.4707" y="1.25" width="84" height="29"/>
<path d="M63.4707 29.8922C63.4707 20.2391 79.827 6.25 100.007 6.25C120.18 6.25 136.535 20.2391 136.535 29.8922"/>
</mask>
<path d="M63.4707 29.8922C63.4707 20.2391 79.827 6.25 100.007 6.25C120.18 6.25 136.535 20.2391 136.535 29.8922" fill="#FFE8E1"/>
<path d="M63.4707 29.8922H68.4707C68.4707 28.8391 68.9507 27.14 70.4519 24.9727C71.9163 22.8586 74.1511 20.6019 77.0699 18.5253C82.9143 14.3671 91.0491 11.25 100.007 11.25V6.25V1.25C88.7845 1.25 78.6513 5.12741 71.2727 10.3771C67.5799 13.0044 64.4644 16.0549 62.2314 19.2786C60.0352 22.4492 58.4707 26.1187 58.4707 29.8922H63.4707ZM100.007 6.25V11.25C108.961 11.25 117.093 14.3669 122.937 18.525C125.855 20.6016 128.089 22.8583 129.554 24.9725C131.055 27.1398 131.535 28.8389 131.535 29.8922H136.535H141.535C141.535 26.1189 139.97 22.4495 137.775 19.2789C135.542 16.0551 132.427 13.0046 128.735 10.3773C121.357 5.12763 111.226 1.25 100.007 1.25V6.25Z" fill="black" mask="url(#path-8-outside-2_343_136)"/>
<path d="M100.006 29.8922H136.534C136.536 20.2391 120.179 6.25 100.006 6.25" fill="#FFE8E1"/>
</svg>
